<?xml version="1.0" encoding="UTF-8" standalone="no"?>
<!-- Created with Inkscape (http://www.inkscape.org/) -->

<svg
   xmlns:dc="http://purl.org/dc/elements/1.1/"
   xmlns:cc="http://creativecommons.org/ns#"
   xmlns:rdf="http://www.w3.org/1999/02/22-rdf-syntax-ns#"
   xmlns:svg="http://www.w3.org/2000/svg"
   xmlns="http://www.w3.org/2000/svg"
   xmlns:sodipodi="http://sodipodi.sourceforge.net/DTD/sodipodi-0.dtd"
   xmlns:inkscape="http://www.inkscape.org/namespaces/inkscape"
   width="48"
   height="48"
   id="svg2"
   version="1.1"
   inkscape:version="0.48.4 r9939"
   sodipodi:docname="favicon.svg"
   inkscape:export-filename="/home/work/nekodb/demo/img/favicon.png"
   inkscape:export-xdpi="90"
   inkscape:export-ydpi="90">
  <defs
     id="defs4" />
  <sodipodi:namedview
     id="base"
     pagecolor="#ffffff"
     bordercolor="#666666"
     borderopacity="1.0"
     inkscape:pageopacity="0.0"
     inkscape:pageshadow="2"
     inkscape:zoom="8"
     inkscape:cx="12.734587"
     inkscape:cy="7.4125159"
     inkscape:document-units="px"
     inkscape:current-layer="layer3"
     showgrid="false"
     showguides="true"
     inkscape:guide-bbox="true"
     fit-margin-top="0"
     fit-margin-left="0"
     fit-margin-right="0"
     fit-margin-bottom="0"
     inkscape:window-width="1916"
     inkscape:window-height="1036"
     inkscape:window-x="0"
     inkscape:window-y="22"
     inkscape:window-maximized="0"
     borderlayer="false">
    <sodipodi:guide
       orientation="0,1"
       position="29.96365,21.213203"
       id="guide3036" />
  </sodipodi:namedview>
  <metadata
     id="metadata7">
    <rdf:RDF>
      <cc:Work
         rdf:about="">
        <dc:format>image/svg+xml</dc:format>
        <dc:type
           rdf:resource="http://purl.org/dc/dcmitype/StillImage" />
        <dc:title></dc:title>
      </cc:Work>
    </rdf:RDF>
  </metadata>
  <g
     inkscape:groupmode="layer"
     id="layer5"
     inkscape:label="层#1"
     style="display:none"
     transform="translate(0,-82.393127)">
    <rect
       style="fill:#2a2a2a;fill-opacity:1;stroke:#ffffff;stroke-width:0.5;stroke-linecap:round;stroke-linejoin:round;stroke-miterlimit:4;stroke-opacity:1;stroke-dasharray:none;stroke-dashoffset:0"
       id="rect3928"
       width="215.5"
       height="161.5"
       x="-23.5"
       y="-14.106872" />
  </g>
  <g
     inkscape:label="Layer 1"
     inkscape:groupmode="layer"
     id="layer1"
     style="display:inline"
     transform="translate(-230.28125,-144.54938)"
     sodipodi:insensitive="true">
    <path
       style="fill:#326ea2;fill-opacity:1;stroke:#ffffff;stroke-width:0.37221581;stroke-miterlimit:4;stroke-opacity:0.78723408;stroke-dasharray:none"
       d="m 235.85669,149.59238 0,34.76238 -3.82682,0 0,1.37254 c 0,0 44.81304,0.36268 44.75119,0.21626 l 0,-1.5888 -4.58215,-0.0416 c 3.0885,-2.68358 4.72597,-9.84889 4.96093,-15.16105 0.15346,-3.46958 -1.36913,-8.44508 -2.35328,-10.14968 -0.97574,-1.69002 -2.92138,-2.94151 -4.19103,-2.04475 -0.98,0.69219 -0.0526,2.78227 0.4059,3.57644 1.13983,1.97425 1.97189,6.30608 1.50878,9.46825 -0.76725,5.23886 -2.98187,11.32946 -6.89279,14.31079 l -0.005,0 0,-34.72074 -7.44433,10.31735 -14.88864,0 z"
       id="path3783"
       inkscape:connector-curvature="0"
       sodipodi:nodetypes="cccccccasasacccccc" />
  </g>
  <g
     inkscape:groupmode="layer"
     id="layer3"
     inkscape:label="层"
     transform="translate(-230.28125,-144.54938)">
    <path
       style="fill:#31c56d;fill-opacity:1;stroke:none"
       d="m 254.17425,170.97791 c 0.0334,-0.90956 0.31236,-2.47592 1.23571,-3.36541 2.02552,-1.95117 4.78858,-2.10376 7.45537,-1.72095 -0.26149,2.8875 -1.79243,4.11638 -2.70161,4.62349 -1.71514,0.9567 -4.30142,1.01676 -5.98947,0.46287 z"
       id="path3785"
       inkscape:connector-curvature="0"
       sodipodi:nodetypes="cscsc" />
    <path
       style="font-size:medium;font-style:normal;font-variant:normal;font-weight:normal;font-stretch:normal;text-indent:0;text-align:start;text-decoration:none;line-height:normal;letter-spacing:normal;word-spacing:normal;text-transform:none;direction:ltr;block-progression:tb;writing-mode:lr-tb;text-anchor:start;baseline-shift:baseline;color:#000000;fill:#ffffff;fill-opacity:1;stroke:none;stroke-width:1px;marker:none;visibility:visible;display:inline;overflow:visible;enable-background:accumulate;font-family:Sans;-inkscape-font-specification:Sans"
       d="m 244.75498,176.1011 c -0.0339,3.5e-4 -0.0732,0.44249 -0.0698,0.67465 0.0148,1.01377 0.34049,2.11104 0.84911,2.63104 0.50861,0.51999 1.06408,0.77054 1.77965,0.82937 1.32739,0.10922 2.75768,-0.20953 3.43136,-1.5203 0.6737,1.31077 2.10402,1.6294 3.43138,1.5203 0.71557,-0.0588 1.27104,-0.39777 1.77966,-0.91776 0.5086,-0.52 0.83527,-1.52888 0.84911,-2.54265 0.003,-0.23216 -0.0358,-0.6743 -0.0698,-0.67465 -0.0339,-3.3e-4 -0.0337,0.45629 -0.093,0.68627 -0.19481,0.75521 -0.38786,1.26208 -0.82585,1.70988 -0.438,0.4478 -1.03561,0.69189 -1.67496,0.74444 -1.27869,0.10519 -2.68659,-0.57581 -3.21036,-1.93087 l -0.18619,-0.45364 -0.18618,0.45364 c -0.5238,1.35506 -1.93169,2.03594 -3.21036,1.93087 -0.63935,-0.0526 -1.237,-0.29664 -1.67498,-0.74444 -0.438,-0.4478 -0.63111,-0.95467 -0.82586,-1.70988 -0.0594,-0.22998 -0.0592,-0.6866 -0.0931,-0.68627 z"
       id="path3809"
       inkscape:connector-curvature="0"
       sodipodi:nodetypes="ccsscsscscsscccsscsc" />
    <path
       style="fill:#ffffff;fill-opacity:1;stroke:none"
       d="m 258.2382,166.26131 c -0.92283,1.68402 -0.75084,3.28273 0.007,4.82866 0.5785,-1.64918 0.818,-3.28439 -0.007,-4.82866 z"
       id="path3873"
       inkscape:connector-curvature="0"
       sodipodi:nodetypes="ccc" />
    <path
       sodipodi:nodetypes="cscsc"
       inkscape:connector-curvature="0"
       id="path3032"
       d="m 247.79512,170.88953 c -0.0334,-0.90956 -0.31236,-2.47592 -1.23571,-3.36541 -2.02552,-1.95117 -4.78858,-2.10376 -7.45537,-1.72095 0.26149,2.8875 1.79243,4.11638 2.70161,4.62349 1.71514,0.9567 4.30142,1.01676 5.98947,0.46287 z"
       style="fill:#31c56d;fill-opacity:1;stroke:none" />
    <path
       sodipodi:nodetypes="ccc"
       inkscape:connector-curvature="0"
       id="path3034"
       d="m 243.73117,166.17293 c 0.92283,1.68402 0.75084,3.28273 -0.007,4.82866 -0.5785,-1.64918 -0.818,-3.28439 0.007,-4.82866 z"
       style="fill:#ffffff;fill-opacity:1;stroke:none" />
  </g>
</svg>
